<?xml version="1.0" encoding="utf-8"?>
<svg xmlns="http://www.w3.org/2000/svg" style="margin: auto; background: rgb(255, 255, 255); display: block; shape-rendering: auto;" width="240" height="240" preserveAspectRatio="xMidYMid">
<style type="text/css">
  text {
    text-anchor: middle; font-size: 29px; opacity: 0;
  }
</style>
<g style="transform-origin:120px 120px;transform:scale(1)">
<g transform="translate(120,120)">
  <g transform="translate(0,0)"><g class="path" style="opacity: 1; transform-origin: -112.085px -2.23922px; animation: 1s linear -0.612857s infinite normal forwards running fade-a654d3fe-f437-4ce9-be77-f2cc9c817b17;"><path d="M4.93 0L4.93-18.85L0-18.85L0-20.30L11.66-20.30L11.66-18.85L6.55-18.85L6.55 0L4.93 0" fill="#000000" stroke="none" stroke-width="none" transform="translate(-117.91502094268799,7.91078324999129)" style="fill: rgb(0, 0, 0);"></path></g><g class="path" style="opacity: 1; transform-origin: -97.685px -2.23922px; animation: 1s linear -0.565714s infinite normal forwards running fade-a654d3fe-f437-4ce9-be77-f2cc9c817b17;"><path d="M24.88 0L22.42-7.19L22.42-7.19Q21.90-7.11 21.26-7.11L21.26-7.11L15.54-7.11L15.54 0L13.92 0L13.92-20.30L21.05-20.30L21.05-20.30Q23.81-20.30 25.16-18.62L25.16-18.62L25.16-18.62Q26.51-16.94 26.51-14.09L26.51-14.09L26.51-14.09Q26.51-11.92 26.03-10.24L26.03-10.24L26.03-10.24Q25.55-8.55 23.95-7.69L23.95-7.69L26.54 0L24.88 0zM21.29-8.70L21.29-8.70Q22.91-8.70 23.71-9.57L23.71-9.57L23.71-9.57Q24.51-10.44 24.69-11.54L24.69-11.54L24.69-11.54Q24.88-12.64 24.88-14.01L24.88-14.01L24.88-14.01Q24.88-16.39 23.90-17.57L23.90-17.57L23.90-17.57Q22.91-18.76 21.17-18.76L21.17-18.76L15.54-18.76L15.54-8.70L21.29-8.70" fill="#000000" stroke="none" stroke-width="none" transform="translate(-117.91502094268799,7.91078324999129)" style="fill: rgb(0, 0, 0);"></path></g><g class="path" style="opacity: 1; transform-origin: -82.23px -2.23922px; animation: 1s linear -0.518571s infinite normal forwards running fade-a654d3fe-f437-4ce9-be77-f2cc9c817b17;"><path d="M41.27 0L38.95-7.11L32.34-7.11L30.07 0L28.36 0L34.86-20.30L36.40-20.30L43.01 0L41.27 0zM35.61-17.78L32.80-8.70L38.51-8.70L35.61-17.78" fill="#000000" stroke="none" stroke-width="none" transform="translate(-117.91502094268799,7.91078324999129)" style="fill: rgb(0, 0, 0);"></path></g><g class="path" style="opacity: 1; transform-origin: -65.22px -2.23922px; animation: 1s linear -0.471429s infinite normal forwards running fade-a654d3fe-f437-4ce9-be77-f2cc9c817b17;"><path d="M58.20 0L47.18-17.31L47.18 0L45.56 0L45.56-20.30L47.18-20.30L58.20-2.99L58.20-20.30L59.83-20.30L59.83 0L58.20 0" fill="#000000" stroke="none" stroke-width="none" transform="translate(-117.91502094268799,7.91078324999129)" style="fill: rgb(0, 0, 0);"></path></g><g class="path" style="opacity: 1; transform-origin: -39.15px -2.23922px; animation: 1s linear -0.424286s infinite normal forwards running fade-a654d3fe-f437-4ce9-be77-f2cc9c817b17;"><path d="M72.47 0L72.47-20.30L79.61-20.30L79.61-20.30Q82.36-20.30 83.71-18.62L83.71-18.62L83.71-18.62Q85.06-16.94 85.06-14.09L85.06-14.09L85.06-14.09Q85.06-12.27 84.77-10.80L84.77-10.80L84.77-10.80Q84.48-9.34 83.32-8.22L83.32-8.22L83.32-8.22Q82.16-7.11 79.81-7.11L79.81-7.11L74.09-7.11L74.09 0L72.47 0zM79.84-8.70L79.84-8.70Q81.46-8.70 82.26-9.57L82.26-9.57L82.26-9.57Q83.06-10.44 83.24-11.54L83.24-11.54L83.24-11.54Q83.43-12.64 83.43-14.01L83.43-14.01L83.43-14.01Q83.43-16.39 82.45-17.57L82.45-17.57L82.45-17.57Q81.46-18.76 79.72-18.76L79.72-18.76L74.09-18.76L74.09-8.70L79.84-8.70" fill="#000000" stroke="none" stroke-width="none" transform="translate(-117.91502094268799,7.91078324999129)" style="fill: rgb(0, 0, 0);"></path></g><g class="path" style="opacity: 1; transform-origin: -23.4px -2.23922px; animation: 1s linear -0.377143s infinite normal forwards running fade-a654d3fe-f437-4ce9-be77-f2cc9c817b17;"><path d="M99.12 0L99.12-10.38L89.90-10.38L89.90 0L88.28 0L88.28-20.30L89.90-20.30L89.90-11.98L99.12-11.98L99.12-20.30L100.75-20.30L100.75 0L99.12 0" fill="#000000" stroke="none" stroke-width="none" transform="translate(-117.91502094268799,7.91078324999129)" style="fill: rgb(0, 0, 0);"></path></g><g class="path" style="opacity: 1; transform-origin: -6.60003px -2.15422px; animation: 1s linear -0.33s infinite normal forwards running fade-a654d3fe-f437-4ce9-be77-f2cc9c817b17;"><path d="M115.80-20.33L117.42-20.33L117.42-5.39L117.42-5.39Q117.42-2.47 115.64-1.13L115.64-1.13L115.64-1.13Q113.85 0.20 111.33 0.20L111.33 0.20L111.33 0.20Q108.81 0.20 107.01-1.13L107.01-1.13L107.01-1.13Q105.21-2.47 105.21-5.39L105.21-5.39L105.21-20.33L106.84-20.33L106.84-5.16L106.84-5.16Q106.84-3.39 108.13-2.32L108.13-2.32L108.13-2.32Q109.42-1.25 111.30-1.25L111.30-1.25L111.30-1.25Q113.19-1.25 114.49-2.32L114.49-2.32L114.49-2.32Q115.80-3.39 115.80-5.16L115.80-5.16L115.80-20.33" fill="#000000" stroke="none" stroke-width="none" transform="translate(-117.91502094268799,7.91078324999129)" style="fill: rgb(0, 0, 0);"></path></g><g class="path" style="opacity: 1; transform-origin: 9.48497px -2.30922px; animation: 1s linear -0.282857s infinite normal forwards running fade-a654d3fe-f437-4ce9-be77-f2cc9c817b17;"><path d="M133.49-5.37L133.49-5.37Q133.49-2.44 131.70-1.06L131.70-1.06L131.70-1.06Q129.92 0.32 127.43 0.32L127.43 0.32L127.43 0.32Q125.86 0.32 124.47-0.25L124.47-0.25L124.47-0.25Q123.08-0.81 122.19-2.09L122.19-2.09L122.19-2.09Q121.31-3.36 121.31-5.37L121.31-5.37L121.31-14.70L121.31-14.70Q121.31-17.69 122.95-19.23L122.95-19.23L122.95-19.23Q124.58-20.76 127.45-20.76L127.45-20.76L127.45-20.76Q130.33-20.76 131.91-19.14L131.91-19.14L131.91-19.14Q133.49-17.52 133.49-14.67L133.49-14.67L133.49-5.37zM131.89-14.96L131.89-14.96Q131.89-17.08 130.66-18.15L130.66-18.15L130.66-18.15Q129.43-19.23 127.40-19.23L127.40-19.23L127.40-19.23Q125.37-19.23 124.15-18.15L124.15-18.15L124.15-18.15Q122.93-17.08 122.93-14.96L122.93-14.96L122.93-5.39L122.93-5.39Q122.93-3.33 124.19-2.28L124.19-2.28L124.19-2.28Q125.45-1.22 127.40-1.22L127.40-1.22L127.40-1.22Q129.37-1.22 130.63-2.25L130.63-2.25L130.63-2.25Q131.89-3.28 131.89-5.42L131.89-5.42L131.89-14.96" fill="#000000" stroke="none" stroke-width="none" transform="translate(-117.91502094268799,7.91078324999129)" style="fill: rgb(0, 0, 0);"></path></g><g class="path" style="opacity: 1; transform-origin: 26.88px -2.23922px; animation: 1s linear -0.235714s infinite normal forwards running fade-a654d3fe-f437-4ce9-be77-f2cc9c817b17;"><path d="M150.31 0L139.29-17.31L139.29 0L137.66 0L137.66-20.30L139.29-20.30L150.31-2.99L150.31-20.30L151.93-20.30L151.93 0L150.31 0" fill="#000000" stroke="none" stroke-width="none" transform="translate(-117.91502094268799,7.91078324999129)" style="fill: rgb(0, 0, 0);"></path></g><g class="path" style="opacity: 1; transform-origin: 44.185px -2.22422px; animation: 1s linear -0.188571s infinite normal forwards running fade-a654d3fe-f437-4ce9-be77-f2cc9c817b17;"><path d="M166.87 0L166.46-1.19L166.46-1.19Q164.95 0.29 162.25 0.29L162.25 0.29L162.25 0.29Q160.63 0.29 159.24-0.32L159.24-0.32L159.24-0.32Q157.85-0.93 156.99-2.23L156.99-2.23L156.99-2.23Q156.14-3.54 156.14-5.48L156.14-5.48L156.14-14.59L156.14-14.59Q156.14-16.62 156.79-17.85L156.79-17.85L156.79-17.85Q157.44-19.08 158.66-19.84L158.66-19.84L158.66-19.84Q159.94-20.56 161.79-20.56L161.79-20.56L161.79-20.56Q164.05-20.56 165.88-19.60L165.88-19.60L165.42-18.50L165.42-18.50Q163.76-19.11 162.28-19.11L162.28-19.11L162.28-19.11Q160.52-19.11 159.14-18.24L159.14-18.24L159.14-18.24Q157.76-17.37 157.76-14.85L157.76-14.85L157.76-5.42L157.76-5.42Q157.76-3.48 159.02-2.38L159.02-2.38L159.02-2.38Q160.28-1.28 162.23-1.28L162.23-1.28L162.23-1.28Q164.20-1.28 165.36-2.41L165.36-2.41L165.36-2.41Q166.52-3.54 166.52-5.39L166.52-5.39L166.52-7.11L164.60-7.11L164.05-8.70L168.06-8.70L168.06 0L166.87 0" fill="#000000" stroke="none" stroke-width="none" transform="translate(-117.91502094268799,7.91078324999129)" style="fill: rgb(0, 0, 0);"></path></g><g class="path" style="opacity: 1; transform-origin: 68.325px -2.25422px; animation: 1s linear -0.141429s infinite normal forwards running fade-a654d3fe-f437-4ce9-be77-f2cc9c817b17;"><path d="M180.15 0L180.15-20.33L185.60-20.33L185.60-20.33Q188.88-20.33 190.60-18.53L190.60-18.53L190.60-18.53Q192.33-16.73 192.33-13.75L192.33-13.75L192.33-5.80L192.33-5.80Q192.33 0 186.18 0L186.18 0L180.15 0zM190.70-14.04L190.70-14.04Q190.70-15.69 189.99-16.78L189.99-16.78L189.99-16.78Q189.28-17.86 188.18-18.36L188.18-18.36L188.18-18.36Q187.08-18.85 185.89-18.85L185.89-18.85L181.77-18.85L181.77-1.45L185.72-1.45L185.72-1.45Q187.83-1.45 189.27-2.28L189.27-2.28L189.27-2.28Q190.70-3.10 190.70-5.51L190.70-5.51L190.70-14.04" fill="#000000" stroke="none" stroke-width="none" transform="translate(-117.91502094268799,7.91078324999129)" style="fill: rgb(0, 0, 0);"></path></g><g class="path" style="opacity: 1; transform-origin: 80.37px -2.23922px; animation: 1s linear -0.0942857s infinite normal forwards running fade-a654d3fe-f437-4ce9-be77-f2cc9c817b17;"><path d="M198.45 0L198.45-18.82L196.50-18.88L196.50-20.30L200.07-20.30L200.07 0L198.45 0" fill="#000000" stroke="none" stroke-width="none" transform="translate(-117.91502094268799,7.91078324999129)" style="fill: rgb(0, 0, 0);"></path></g><g class="path" style="opacity: 1; transform-origin: 93.73px -2.23922px; animation: 1s linear -0.0471429s infinite normal forwards running fade-a654d3fe-f437-4ce9-be77-f2cc9c817b17;"><path d="M217.15 0L206.13-17.31L206.13 0L204.51 0L204.51-20.30L206.13-20.30L217.15-2.99L217.15-20.30L218.78-20.30L218.78 0L217.15 0" fill="#000000" stroke="none" stroke-width="none" transform="translate(-117.91502094268799,7.91078324999129)" style="fill: rgb(0, 0, 0);"></path></g><g class="path" style="opacity: 1; transform-origin: 111.68px -2.23922px; animation: 1s linear 0s infinite normal forwards running fade-a654d3fe-f437-4ce9-be77-f2cc9c817b17;"><path d="M234.20 0L234.20-10.38L224.98-10.38L224.98 0L223.36 0L223.36-20.30L224.98-20.30L224.98-11.98L234.20-11.98L234.20-20.30L235.83-20.30L235.83 0L234.20 0" fill="#000000" stroke="none" stroke-width="none" transform="translate(-117.91502094268799,7.91078324999129)" style="fill: rgb(0, 0, 0);"></path></g></g>
</g>
</g>
<style id="fade-a654d3fe-f437-4ce9-be77-f2cc9c817b17" data-anikit="">@keyframes fade-a654d3fe-f437-4ce9-be77-f2cc9c817b17
{
  0% {
    animation-timing-function: cubic-bezier(0.2057,0.573,0.3723,0.9184);
    opacity: 1;
  }
  100% {
    opacity: 0;
  }
}</style></svg>